<svg width="35" height="35" viewBox="0 0 35 35" fill="none" xmlns="http://www.w3.org/2000/svg">
<path d="M29.1667 30.625C29.1667 28.5898 29.1667 27.5722 28.9155 26.7442C28.35 24.8798 26.891 23.4209 25.0267 22.8553C24.1987 22.6042 23.1811 22.6042 21.1459 22.6042H13.8542C11.819 22.6042 10.8014 22.6042 9.97338 22.8553C8.10904 23.4209 6.6501 24.8798 6.08456 26.7442C5.83337 27.5722 5.83337 28.5898 5.83337 30.625M24.0625 10.9375C24.0625 14.5619 21.1244 17.5 17.5 17.5C13.8757 17.5 10.9375 14.5619 10.9375 10.9375C10.9375 7.31313 13.8757 4.375 17.5 4.375C21.1244 4.375 24.0625 7.31313 24.0625 10.9375Z" stroke="black" stroke-width="2" stroke-linecap="round" stroke-linejoin="round"/>
</svg>
