<svg width="35" height="35" viewBox="0 0 35 35" fill="none" xmlns="http://www.w3.org/2000/svg">
<path d="M13.125 30.625V19.8333C13.125 19.0166 13.125 18.6082 13.2839 18.2963C13.4237 18.0219 13.6468 17.7988 13.9212 17.6589C14.2332 17.5 14.6416 17.5 15.4583 17.5H19.5416C20.3584 17.5 20.7667 17.5 21.0787 17.6589C21.3531 17.7988 21.5762 18.0219 21.716 18.2963C21.875 18.6082 21.875 19.0166 21.875 19.8333V30.625M2.91663 13.8542L16.1 3.96667C16.602 3.59013 16.853 3.40187 17.1287 3.32929C17.3721 3.26524 17.6279 3.26524 17.8712 3.32929C18.1469 3.40187 18.3979 3.59013 18.9 3.96667L32.0833 13.8542M5.8333 11.6667V25.9583C5.8333 27.5918 5.8333 28.4086 6.1512 29.0325C6.43083 29.5813 6.87702 30.0275 7.42583 30.3071C8.04974 30.625 8.86648 30.625 10.5 30.625H24.5C26.1335 30.625 26.9502 30.625 27.5741 30.3071C28.1229 30.0275 28.5691 29.5813 28.8487 29.0325C29.1666 28.4086 29.1666 27.5918 29.1666 25.9583V11.6667L20.3 5.01667C19.2959 4.2636 18.7938 3.88707 18.2425 3.74192C17.7558 3.6138 17.2442 3.6138 16.7575 3.74192C16.2061 3.88707 15.7041 4.2636 14.7 5.01667L5.8333 11.6667Z" stroke="white" stroke-width="2" stroke-linecap="round" stroke-linejoin="round"/>
</svg>
