<svg width="40" height="40" viewBox="0 0 40 40" fill="none" xmlns="http://www.w3.org/2000/svg">
<path d="M26.6667 28.3333L35 20M35 20L26.6667 11.6667M35 20H15M20 28.3333C20 29.8833 20 30.6583 19.8296 31.2941C19.3673 33.0196 18.0196 34.3673 16.2941 34.8296C15.6583 35 14.8833 35 13.3333 35H12.5C10.1703 35 9.00544 35 8.08658 34.6194C6.86144 34.1119 5.88807 33.1386 5.3806 31.9134C5 30.9946 5 29.8297 5 27.5V12.5C5 10.1703 5 9.00544 5.3806 8.08658C5.88807 6.86144 6.86144 5.88807 8.08658 5.3806C9.00544 5 10.1703 5 12.5 5H13.3333C14.8833 5 15.6583 5 16.2941 5.17037C18.0196 5.63271 19.3673 6.98044 19.8296 8.7059C20 9.34174 20 10.1167 20 11.6667" stroke="#D8D9DA" stroke-width="2" stroke-linecap="round" stroke-linejoin="round"/>
</svg>
