<svg width="35" height="35" viewBox="0 0 35 35" fill="none" xmlns="http://www.w3.org/2000/svg">
<path d="M17.5 2.91663C19.4151 2.91663 21.3114 3.29384 23.0808 4.02672C24.8501 4.7596 26.4577 5.8338 27.8119 7.18799C29.1661 8.54218 30.2403 10.1498 30.9732 11.9192C31.7061 13.6885 32.0833 15.5849 32.0833 17.5M17.5 2.91663V17.5M17.5 2.91663C9.44581 2.91663 2.91663 9.44581 2.91663 17.5C2.91663 25.5541 9.44581 32.0833 17.5 32.0833C25.5541 32.0833 32.0833 25.5541 32.0833 17.5M17.5 2.91663C25.5541 2.91663 32.0833 9.44582 32.0833 17.5M32.0833 17.5L17.5 17.5M32.0833 17.5C32.0833 19.8014 31.5386 22.0701 30.4938 24.1207C29.449 26.1712 27.9337 27.9454 26.0718 29.2981L17.5 17.5" stroke="black" stroke-width="2" stroke-linecap="round" stroke-linejoin="round"/>
</svg>
