<svg width="35" height="35" viewBox="0 0 35 35" fill="none" xmlns="http://www.w3.org/2000/svg">
<path d="M17.5 2.91675C19.4151 2.91675 21.3115 3.29396 23.0808 4.02684C24.8502 4.75972 26.4578 5.83392 27.812 7.18811C29.1662 8.5423 30.2404 10.15 30.9733 11.9193C31.7061 13.6886 32.0834 15.585 32.0834 17.5001M17.5 2.91675V17.5001M17.5 2.91675C9.44587 2.91675 2.91669 9.44593 2.91669 17.5001C2.91669 25.5542 9.44587 32.0834 17.5 32.0834C25.5542 32.0834 32.0834 25.5542 32.0834 17.5001M17.5 2.91675C25.5542 2.91675 32.0834 9.44594 32.0834 17.5001M32.0834 17.5001L17.5 17.5001M32.0834 17.5001C32.0834 19.8015 31.5387 22.0702 30.4939 24.1208C29.449 26.1713 27.9338 27.9455 26.0719 29.2982L17.5 17.5001" stroke="white" stroke-width="2" stroke-linecap="round" stroke-linejoin="round"/>
</svg>
