<svg width="35" height="35" viewBox="0 0 35 35" fill="none" xmlns="http://www.w3.org/2000/svg">
<path d="M4.375 13.125L30.625 13.125M13.125 4.375L13.125 30.625M11.375 4.375H23.625C26.0752 4.375 27.3003 4.375 28.2362 4.85185C29.0594 5.27129 29.7287 5.94058 30.1482 6.76379C30.625 7.69966 30.625 8.92477 30.625 11.375V23.625C30.625 26.0752 30.625 27.3003 30.1482 28.2362C29.7287 29.0594 29.0594 29.7287 28.2362 30.1482C27.3003 30.625 26.0752 30.625 23.625 30.625H11.375C8.92477 30.625 7.69966 30.625 6.76379 30.1482C5.94058 29.7287 5.27129 29.0594 4.85185 28.2362C4.375 27.3003 4.375 26.0752 4.375 23.625V11.375C4.375 8.92477 4.375 7.69966 4.85185 6.76379C5.27129 5.94058 5.94058 5.27129 6.76379 4.85185C7.69966 4.375 8.92477 4.375 11.375 4.375Z" stroke="black" stroke-width="2" stroke-linecap="round" stroke-linejoin="round"/>
</svg>
