<svg width="55" height="55" viewBox="0 0 55 55" fill="none" xmlns="http://www.w3.org/2000/svg">
<path d="M45.8333 48.125C45.8333 44.9268 45.8333 43.3277 45.4386 42.0265C44.5499 39.0969 42.2573 36.8043 39.3276 35.9155C38.0264 35.5208 36.4273 35.5208 33.2292 35.5208H21.7708C18.5727 35.5208 16.9736 35.5208 15.6724 35.9155C12.7427 36.8043 10.4501 39.0969 9.56139 42.0265C9.16667 43.3277 9.16667 44.9268 9.16667 48.125M37.8125 17.1875C37.8125 22.8829 33.1954 27.5 27.5 27.5C21.8046 27.5 17.1875 22.8829 17.1875 17.1875C17.1875 11.4921 21.8046 6.875 27.5 6.875C33.1954 6.875 37.8125 11.4921 37.8125 17.1875Z" stroke="black" stroke-width="2" stroke-linecap="round" stroke-linejoin="round"/>
</svg>
